<?xml version="1.0" encoding="UTF-8"?>
<svg id="Layer_1" xmlns="http://www.w3.org/2000/svg" width="200" height="79.54" version="1.1" viewBox="0 0 200 79.54">
  <!-- Generator: Adobe Illustrator 29.8.0, SVG Export Plug-In . SVG Version: 2.1.1 Build 160)  -->
  <defs>
    <style>
      .st0 {
        fill: #13325e;
      }
    </style>
  </defs>
  <path id="ay" class="st0" d="M.1,50.7h4.2v.4l-1.1.5v7c0,.7.2,1.4.5,1.9,1.4,1.6,3.8,1.8,5.4.5.1,0,.3-.2.4-.4.5-.7.7-1.5.7-2.3.1-2.5,0-4.7,0-6.7l-1.3-.5v-.4h3.9v.4c-.1,0-1.6.6-1.6.6-.1.4-.1.9-.2,6.5,0,1-.2,2-.7,2.8-.9,1.3-2.4,2.1-4,2-1.7,0-3.2-.6-4.2-2-.4-.8-.6-1.7-.6-2.6v-6.7l-1.5-.5s0-.5.1-.5Z"/>
  <path id="az" class="st0" d="M17.9,62.7h-4.3v-.4c.1,0,1.6-.7,1.6-.7.1-.8.2-3.8.3-9.1-.7-1.1-.9-1-2-1.4l.2-.4h2.5c.2.3.4.6.7.9,2.4,3,5,6,7.4,8.7h.1c0-.8-.1-7.4-.1-8.6l-1.5-.6.2-.4h4v.5c-.1,0-1.6.6-1.6.6,0,.8-.2,6-.2,9.4s0,1.4-.1,1.9h-.2c-1.6-1-4.8-5-8.5-9.6h-.1c0,3.1,0,7.5.1,8.3l1.6.7s-.1.2,0,.2h-.1Z"/>
  <path id="ba" class="st0" d="M28.1,50.7h4.4v.4l-1.5.6v4.8c0,3,.1,5,.1,5.3l1.7.5v.4h-5v-.4c.1,0,1.5-.5,1.5-.5.1-.3.1-2.3.1-5.3v-4.8l-1.4-.5s.1-.5,0-.5h.1Z"/>
  <path id="bb" class="st0" d="M43,50.8c.5,0,1-.2,1.5-.3h0c0,1.1-.3,2-.5,3h-.3c-.2-.3-.7-1.8-.7-2.1h-3.2v10.3l2.1.6-.2.4h-5.8v-.4l2-.6v-10.2h-3c-.2.4-.9,1.6-1.1,2h-.3v-2.9h0c.3,0,1,0,1.4.2h8.1Z"/>
  <path id="bc" class="st0" d="M45.8,50.7h6.7c.5,0,1-.2,1.5-.2h0c0,.6-.3,2.2-.5,2.7l-.3.2c-.2-.4-.6-1.6-.8-2h-3.7v4.6c1.5,0,3.1,0,4.6-.2v.2c0,.2-.8,1.1-1,1.1-.3,0-3.1-.2-3.6-.2v4.9l3.9.2c.4-.5,1.2-1.7,1.6-2.2h.4c-.2,1-.4,2-.6,2.9h-8.7v-.4l1.6-.5v-10.1l-1.6-.5.3-.4h.2v-.1Z"/>
  <path id="bd" class="st0" d="M55.8,50.8c.4,0,2.1-.2,4.2-.2,4.6,0,7.6,1.8,7.6,5.8s-1.5,4.9-4,5.7c-1.6.5-3.2.7-4.9.7h-3.2v-.4l1.5-.5v-10.2l-1.6-.3.3-.5h0l.1-.1ZM58.8,56.5v5.6c2.1,0,3.9-.3,5.1-1.4,1.2-1.1,1.8-2.6,1.7-4.2,0-1.5-.5-3-1.7-3.9-1.2-1-2.8-1.3-5.2-1.3v5.2h.1Z"/>
  <path id="be" class="st0" d="M79.8,56.9c1,0,4-.2,5,0-.2,2.1-.6,4.2-1.1,6.2h0c-.4,0-.7-.3-.9-.6-.9.4-1.9.6-3,.7-3.9,0-6.6-2.4-6.6-6.3s2.9-6.4,7-6.4,2.1.2,2.9.8c.4-.3.9-.5,1.4-.7h0c-.2,1.2-.4,2.2-.7,3.2l-.4.2c-.3-.7-.5-1.4-.6-2.1-.8-.4-1.6-.6-2.5-.6-3,0-5.4,2.5-5.4,5.5s2.5,5.4,5.5,5.4,1.5,0,2.2-.4c0-1.3.2-2.9.3-4h-3.9v-.2l.8-.6h0v-.1Z"/>
  <path id="bf" class="st0" d="M86.2,51c1.4-.2,2.9-.4,4.3-.4,3,0,4.5,1,4.5,3.1s-1.5,2.8-2.9,3.2h0c.4.7,1.8,2.6,2.8,4,1,1.3,1.3,1.7,1.6,2h-.2c-1.1,0-2.2-.4-2.9-1.3-1.2-1.4-2.3-2.9-3.2-4.5h0c1.7-.6,3-1.3,3-3.1s-1.9-2.7-4-2.6v10.4l1.8.6v.4h-5.1v-.4l1.5-.6v-10.1l-1.6-.3.2-.4s.2,0,.2,0Z"/>
  <path id="bg" class="st0" d="M103.7,50.4h0c0,.5.2.9.4,1.3.3.7,2,5.3,3.8,9.6.3.5.6.6,1.8,1v.4h-4.1v-.4l.8-.5c0-.5-.7-1.7-1.4-3.5h-4.1c-.7,1.7-.9,2.5-1.2,3.3l1.6.6v.4h-4.1v-.4l1.4-.6c.5-1.1,2.5-5.7,4-9.4v-.6l-.2-.5,1.2-.8h0l.1.1ZM102.9,52.9c-.8,2.3-1.3,3.4-1.7,4.6h3.5c-.7-1.9-1.3-3.3-1.8-4.7h0v.1Z"/>
  <path id="bh" class="st0" d="M114.8,62.7h-4.3v-.4l1.6-.7c0-.8.2-3.8.3-9.1-.7-1.1-.9-1-2-1.4l.2-.4h2.5c.2.3.4.6.7.9,2.4,3,5,6,7.4,8.7h0v-8.6l-1.5-.6.2-.4h4v.5l-1.6.6c0,.8-.2,6-.2,9.4s0,1.4,0,1.9h-.2c-1.6-1-4.8-5-8.5-9.6h0v8.3l1.6.7v.2h-.2Z"/>
  <path id="bi" class="st0" d="M124.9,50.8c.4,0,2.1-.2,4.2-.2,4.6,0,7.6,1.8,7.6,5.8.1,2.6-1.5,4.9-4,5.7-1.6.5-3.2.7-4.9.7h-3.2v-.4l1.5-.5v-10.2l-1.6-.3.3-.5h0l.1-.1ZM127.9,56.5c0,3,0,5.4.1,5.6,2.1,0,3.9-.3,5.1-1.4,1.2-1.1,1.8-2.6,1.7-4.2.1-1.5-.5-3-1.7-3.9-1.2-1-2.8-1.3-5.2-1.3v5.2h0Z"/>
  <path id="bj" class="st0" d="M142.3,50.7h4.4l-.2.4-1.3.5v4.7c0,2.9,0,5.1.1,5.4l3.9.2c.5-.7,1.3-1.9,1.7-2.4h.4c-.1,1-.3,2.1-.6,3.1h-8.7v-.4c.1,0,1.6-.5,1.6-.5,0-.2.1-2.5.1-5.3v-4.7l-1.5-.6v-.3s.1,0,.1-.1Z"/>
  <path id="bk" class="st0" d="M164.8,56.6c.2,3.4-2.4,6.2-5.8,6.4h-.5c-3,0-6.4-2-6.4-6.2-.1-3.5,2.7-6.4,6.2-6.4h.1c3.5,0,6.4,2.4,6.4,6.2ZM154,56.6c0,3,1.8,5.8,4.7,5.8s4.2-2.9,4.2-5.7-1.9-5.7-4.6-5.7-4.3,2.5-4.3,5.6h0Z"/>
  <path id="bl" class="st0" d="M164.8,50.8c.4,0,2.1-.2,4.2-.2,4.6,0,7.6,1.8,7.6,5.8.1,2.6-1.5,4.9-4,5.7-1.6.5-3.2.7-4.9.7h-3.2v-.4c.1,0,1.5-.5,1.5-.5.1-.2.1-2.3.1-5.3v-4.9l-1.6-.3.3-.5h0v-.1ZM167.9,56.5c0,3,0,5.4.1,5.6,2.1,0,3.9-.3,5.1-1.4,1.2-1.1,1.8-2.6,1.7-4.2.1-1.5-.5-3-1.7-3.9-1.2-1-2.8-1.3-5.2-1.3v5.2h0Z"/>
  <path id="bm" class="st0" d="M184.7,56.9c1,0,4-.2,5,0-.2,2.1-.6,4.2-1.1,6.2h-.1c-.4,0-.7-.3-.9-.6-.9.4-1.9.6-3,.7-3.9,0-6.6-2.4-6.6-6.3s2.9-6.4,7-6.4,2.1.2,2.9.8c.4-.3.9-.5,1.4-.7h.1c-.2,1.2-.4,2.2-.7,3.2l-.4.2c-.3-.7-.5-1.4-.6-2.1-.8-.4-1.6-.6-2.5-.6-3,0-5.4,2.5-5.4,5.5s2.5,5.4,5.5,5.4,1.5,0,2.2-.4c.1-1.3.2-2.9.3-4h-3.9v-.3c-.1,0,.8-.5.8-.5h0v-.1Z"/>
  <path id="bn" class="st0" d="M191.1,50.7h6.7c.5,0,1-.2,1.5-.2h0c0,.6-.3,2.2-.5,2.7l-.3.2c-.2-.4-.6-1.6-.8-2h-3.7v4.6c1.5,0,3.1,0,4.6-.2v.2c0,.2-.8,1.1-1,1.1-.3,0-3.1-.2-3.6-.2,0,1.2,0,3.4.1,4.9l3.9.2c.4-.5,1.2-1.7,1.6-2.2h.4c-.2,1-.4,2-.6,2.9h-8.7v-.4c.1,0,1.6-.5,1.6-.5.1-.2.1-2.2.1-5.3v-4.8l-1.6-.5.3-.4h0v-.1Z"/>
  <path id="bo" class="st0" d="M57,72.9c.2,3.4-2.4,6.2-5.8,6.4h-.5c-3,0-6.4-2-6.4-6.2s2.7-6.4,6.2-6.4h0c3.5,0,6.4,2.3,6.4,6.2h.1ZM46.2,72.9c0,3,1.8,5.8,4.7,5.8s4.2-2.9,4.2-5.7-1.9-5.7-4.6-5.7-4.3,2.5-4.3,5.6Z"/>
  <path id="bp" class="st0" d="M57.2,67h6.6c.5,0,1-.2,1.5-.2h0c0,.4-.3,2.2-.4,2.7l-.3.2c-.3-.7-.5-1.4-.8-2l-3.7.2v4.8c1.7,0,3.6,0,4.7-.2v.2c0,.2-.8,1-.9,1-.4,0-3.2-.2-3.8-.2v4.5l2,.6v.4h-5.1v-.4l1.4-.6v-10.1l-1.6-.5.2-.4h.2Z"/>
  <path id="bq" class="st0" d="M70.7,67h6.7c.5,0,1-.2,1.5-.2h0c0,.6-.3,2.2-.5,2.7l-.3.2c-.2-.4-.6-1.6-.8-2h-3.7v4.6c1.5,0,3.1,0,4.6-.2v.2c0,.2-.8,1.1-1,1.1-.3,0-3.1-.2-3.6-.2v4.9l3.9.2c.4-.5,1.2-1.7,1.6-2.2h.4c-.2,1-.4,2-.6,2.9h-8.7v-.4l1.7-.6v-10.1l-1.6-.5.2-.4h.2Z"/>
  <path id="br" class="st0" d="M84.6,79h-4.3v-.4l1.6-.7c0-.8.2-3.8.3-9.1-.7-1.1-.9-1-2-1.4l.2-.4h2.5c.2.3.4.6.7.9,2.4,3,5,6,7.4,8.7h0v-8.6l-1.5-.6.2-.4h4v.5l-1.7.5c0,.8-.2,6-.2,9.4s0,1.4,0,1.9h-.2c-1.6-1-4.8-5-8.5-9.6h0v8.3l1.6.7v.3h-.1Z"/>
  <path id="bs" class="st0" d="M100.2,73.2c1,0,4-.2,5,0-.2,2.1-.6,4.2-1.1,6.2h0c-.4,0-.7-.3-.9-.6-.9.4-1.9.6-3,.7-3.9,0-6.6-2.4-6.6-6.3s2.9-6.4,7-6.4,2.1.2,2.9.8c.4-.3.9-.5,1.4-.7h0c-.2,1.2-.4,2.2-.7,3.2l-.4.2c-.3-.7-.4-1.4-.6-2.1-.8-.4-1.6-.6-2.5-.6-3,0-5.4,2.5-5.4,5.5s2.5,5.4,5.5,5.4,1.5,0,2.2-.4c0-1.3.2-2.9.3-4h-3.9v-.3l.9-.5h-.1v-.1Z"/>
  <path id="bt" class="st0" d="M106.6,67h4.4l-.2.4-1.3.5v10.1l3.9.2c.5-.7,1.3-1.9,1.7-2.4h.4c0,1-.3,2.1-.6,3.1h-8.7v-.4l1.6-.5v-9.9l-1.5-.6v-.4h.3v-.1Z"/>
  <path id="bu" class="st0" d="M122.7,66.6h0c0,.5.2.9.4,1.3.3.7,2,5.3,3.8,9.6.3.5.6.6,1.8,1v.4h-4.1v-.4l.8-.5c0-.5-.7-1.7-1.4-3.5h-4.1c-.7,1.7-.9,2.5-1.2,3.3l1.6.6v.4h-4.1v-.4l1.4-.6c.5-1.1,2.5-5.7,4-9.4v-.6l-.2-.5,1.2-.8h0l.1.1ZM122,69.2c-.8,2.3-1.3,3.4-1.7,4.6h3.5c-.8-1.9-1.3-3.4-1.8-4.7h0v.1Z"/>
  <path id="bv" class="st0" d="M133.8,79h-4.3v-.4c.1,0,1.6-.7,1.6-.7.1-.8.2-3.8.3-9.1-.7-1.1-.9-1-2-1.4l.2-.4h2.5c.2.3.4.6.7.9,2.4,3,5,6,7.4,8.7h.1c0-.8-.1-7.4-.1-8.6l-1.5-.6.2-.4h4v.5c-.1,0-1.6.6-1.6.6,0,.8-.2,6-.2,9.4s0,1.4-.1,1.9h-.2c-1.6-1-4.8-5-8.5-9.6h-.1c0,3.1,0,7.5.1,8.3l1.6.7v.2h-.1Z"/>
  <path id="bw" class="st0" d="M143.9,67.1c.4,0,2.1-.2,4.2-.2,4.6,0,7.6,1.8,7.6,5.8.1,2.6-1.5,4.9-4,5.7-1.6.5-3.2.7-4.9.7h-3.2v-.4c.1,0,1.5-.5,1.5-.5.1-.2.1-2.3.1-5.3v-4.9l-1.6-.3.3-.5h0v-.1ZM147,72.7c0,3,0,5.4.1,5.6,2.1,0,3.9-.3,5.1-1.4,1.2-1.1,1.8-2.6,1.7-4.2.1-1.5-.5-3-1.7-3.9-1.2-1-2.8-1.3-5.2-1.3v5.2h0Z"/>
  <path id="bx" class="st0" d="M112.4,24.7v1.3l-12.5-16.9-12.4,16.9v-1.3l12.4-20.7h0l12.5,20.7ZM87.6,27.9l.5-.5c1.7-1.6,4.3-1.6,6,0l5.8,5.8,5.8-5.8c1.7-1.6,4.3-1.7,6,0h0l.5.5-12.3,12.3h0s-12.3-12.3-12.3-12.3ZM121.8,21.9c0-12.1-9.8-21.9-21.8-21.9s-21.9,9.8-22,21.9c0,12.1,9.8,21.9,21.9,21.9h0c12.1,0,21.9-9.8,21.9-21.9"/>
</svg>